<svg width="30" height="30" viewBox="0 0 30 30" fill="none" xmlns="http://www.w3.org/2000/svg">
<path d="M29.875 15C29.875 23.2154 23.2154 29.875 15 29.875C6.78464 29.875 0.125 23.2154 0.125 15C0.125 6.78464 6.78464 0.125 15 0.125C23.2154 0.125 29.875 6.78464 29.875 15Z" fill="#60DAA8"/>
<path d="M13.9274 25.0516C15.1548 23.8883 15.6991 22.2814 15.6991 22.2814L13.7208 20.6018C13.7208 20.6018 11.2899 15.9318 11.3048 15.9436C5.87744 9.63216 9.97481 1.07497 10.0211 0.978516C4.25508 3.02668 0.125 8.53124 0.125 14.9998C0.125 22.6559 5.91033 28.9612 13.3472 29.7841C12.3782 28.3164 12.5991 26.3106 13.9274 25.0516Z" fill="#00CE8E"/>
<path d="M14.0908 22.9954C13.6122 22.9958 13.1472 22.8371 12.7686 22.5443L5.75647 17.1352C4.80906 16.4046 4.63341 15.0441 5.36426 14.0967C6.09488 13.1496 7.45536 12.9739 8.40277 13.7045L13.8279 17.8897L21.313 9.60556C22.1152 8.71788 23.485 8.64839 24.3729 9.45076C25.2606 10.2526 25.3301 11.6227 24.5277 12.5104L15.699 22.2814C15.2732 22.7526 14.684 22.9955 14.0907 22.9955L14.0908 22.9954Z" fill="#FFFCDC"/>
</svg>
