<svg width="20" height="20" viewBox="0 0 20 20" fill="none" xmlns="http://www.w3.org/2000/svg">
<g clip-path="url(#clip0_91_2448)">
<path d="M19.3925 7.84879C18.6402 6.6169 17.6913 5.51651 16.5834 4.5913L18.9167 2.25796C19.0685 2.10079 19.1525 1.89029 19.1506 1.6718C19.1487 1.4533 19.0611 1.24429 18.9066 1.08978C18.7521 0.935274 18.543 0.847633 18.3245 0.845735C18.106 0.843836 17.8955 0.927831 17.7384 1.07963L15.2009 3.62046C13.6279 2.68615 11.8296 2.19918 10 2.21213C4.84088 2.21213 1.90088 5.7438 0.607543 7.84879C0.207983 8.49505 -0.00366211 9.23983 -0.00366211 9.99963C-0.00366211 10.7594 0.207983 11.5042 0.607543 12.1505C1.35984 13.3824 2.30878 14.4827 3.41671 15.408L1.08338 17.7413C1.00378 17.8182 0.940299 17.9101 0.896625 18.0118C0.852951 18.1135 0.829962 18.2228 0.829001 18.3335C0.828039 18.4441 0.849124 18.5538 0.891025 18.6563C0.932925 18.7587 0.994803 18.8517 1.07305 18.93C1.15129 19.0082 1.24433 19.0701 1.34675 19.112C1.44916 19.1539 1.55889 19.175 1.66954 19.174C1.78019 19.173 1.88954 19.1501 1.99121 19.1064C2.09288 19.0627 2.18484 18.9992 2.26171 18.9196L4.80504 16.3763C6.3761 17.3105 8.17227 17.7983 10 17.7871C15.1592 17.7871 18.0992 14.2555 19.3925 12.1505C19.7921 11.5042 20.0037 10.7594 20.0037 9.99963C20.0037 9.23983 19.7921 8.49505 19.3925 7.84879ZM2.02754 11.278C1.79016 10.8938 1.66442 10.4512 1.66442 9.99963C1.66442 9.54807 1.79016 9.10542 2.02754 8.72129C3.13921 6.91629 5.65171 3.8788 10 3.8788C11.3836 3.87104 12.7477 4.20449 13.9717 4.84963L12.2942 6.52713C11.4942 5.99596 10.535 5.75796 9.5794 5.8535C8.62384 5.94904 7.73076 6.37224 7.05171 7.0513C6.37266 7.73035 5.94945 8.62343 5.85391 9.57899C5.75837 10.5345 5.99638 11.4937 6.52754 12.2938L4.60254 14.2188C3.58179 13.3936 2.71074 12.3988 2.02754 11.278ZM12.5 9.99963C12.5 10.6627 12.2366 11.2986 11.7678 11.7674C11.299 12.2362 10.6631 12.4996 10 12.4996C9.6288 12.4982 9.26271 12.4127 8.92921 12.2496L12.25 8.92879C12.4131 9.26229 12.4986 9.62839 12.5 9.99963ZM7.50004 9.99963C7.50004 9.33659 7.76343 8.7007 8.23228 8.23186C8.70112 7.76302 9.337 7.49963 10 7.49963C10.3713 7.50107 10.7374 7.58654 11.0709 7.74963L7.75004 11.0705C7.58695 10.737 7.50148 10.3709 7.50004 9.99963ZM17.9725 11.278C16.8609 13.083 14.3484 16.1205 10 16.1205C8.61648 16.1282 7.25235 15.7948 6.02838 15.1496L7.70588 13.4721C8.50593 14.0033 9.46512 14.2413 10.4207 14.1458C11.3762 14.0502 12.2693 13.627 12.9484 12.948C13.6274 12.2689 14.0506 11.3758 14.1462 10.4203C14.2417 9.46471 14.0037 8.50552 13.4725 7.70546L15.3975 5.78046C16.4183 6.6057 17.2893 7.6005 17.9725 8.72129C18.2099 9.10542 18.3357 9.54807 18.3357 9.99963C18.3357 10.4512 18.2099 10.8938 17.9725 11.278Z" fill="#C8C8C8"/>
</g>
<defs>
<clipPath id="clip0_91_2448">
<rect width="20" height="20" fill="white"/>
</clipPath>
</defs>
</svg>
