<svg width="26" height="26" viewBox="0 0 26 26" fill="none" xmlns="http://www.w3.org/2000/svg">
    <circle cx="13" cy="13" r="13" fill="url(#paint0_linear_91_902)"/>
    <path d="M11.1944 18.5556C11.1944 19.35 11.7816 20 12.4993 20C13.217 20 13.8043 19.35 13.8043 18.5556C13.8043 17.7611 13.217 17.1111 12.4993 17.1111C11.7816 17.1111 11.1944 17.7611 11.1944 18.5556Z" fill="white"/>
    <path d="M13.5563 14.5906L13.9935 8.79833C14 8.755 14 8.70446 14 8.66113C14 8.44299 13.9612 8.22696 13.8858 8.02543C13.8103 7.82389 13.6998 7.64077 13.5605 7.48653C13.4211 7.33228 13.2557 7.20992 13.0736 7.12644C12.8915 7.04297 12.6964 7 12.4993 7C11.6185 7 10.9334 7.83055 11.0052 8.79833L11.4423 14.5906C11.488 15.1972 11.9447 15.6667 12.4993 15.6667C13.0539 15.6667 13.5106 15.1972 13.5563 14.5906Z" fill="white"/>
    <defs>
    <linearGradient id="paint0_linear_91_902" x1="13" y1="0" x2="13" y2="26" gradientUnits="userSpaceOnUse">
    <stop stop-color="#FF4C3D"/>
    <stop offset="1" stop-color="#E11A0B"/>
    </linearGradient>
    </defs>
</svg>
