<svg width="136" height="104" viewBox="0 0 136 104" fill="none" xmlns="http://www.w3.org/2000/svg">
<path fill-rule="evenodd" clip-rule="evenodd" d="M21.8063 7.54839V20.8065H9.38697L9.38697 7.54839H21.8063ZM21.8063 35.0645V21.8065H9.38697L9.38697 35.0645H21.8063ZM21.8063 36.0645V48.4839H9.38697L9.38697 36.0645H21.8063ZM21.8063 62.7419V49.4839H9.38697L9.38697 62.7419H21.8063ZM21.8063 63.7419V77H9.38697V63.7419H21.8063ZM21.8063 90.4194V78H9.38697L9.38697 90.4194H21.8063ZM21.8063 91.4194V104H22.8063V91.4194H36.0644V104H37.0644V91.4194H50.3224V104H51.3224V91.4194H64.5805V104H65.5805V91.4194H77.9999V104H78.9999V91.4194H92.2579V104H93.2579V91.4194H106.516V104H107.516V91.4194H119.935V104H120.935V91.4194H135.032V90.4194H120.935V78H135.032V77H120.935V63.7419H135.032V62.7419H120.935V49.4839H135.032V48.4839H120.935V36.0645H135.032V35.0645H120.935V21.8065H135.032V20.8065H120.935V7.54839H135.032V6.54839H120.935V0H119.935V6.54839H107.516V0H106.516V6.54839H93.2579V0H92.2579V6.54839H78.9999V0H77.9999V6.54839H65.5805V0H64.5805V6.54839H51.3225V0H50.3225V6.54839H37.0644V0H36.0644V6.54839H22.8063V0H21.8063V6.54839H9.38697V1.67742H8.38697V6.54839H2.99968V7.54839H8.38697L8.38697 20.8065H0V21.8065H8.38697L8.38697 35.0645H0V36.0645H8.38697L8.38697 48.4839H0V49.4839H8.38697L8.38697 62.7419H0V63.7419H8.38697V77H0V78H8.38697L8.38697 90.4194H0.83871V91.4194H8.38697V102.323H9.38697V91.4194H21.8063ZM119.935 90.4194V78H107.516V90.4194H119.935ZM106.516 90.4194V78H93.2579V90.4194H106.516ZM92.2579 90.4194V78H78.9999V90.4194H92.2579ZM77.9999 90.4194V78H65.5805V90.4194H77.9999ZM64.5805 90.4194V78H51.3225V90.4194H64.5805ZM50.3225 90.4194V78H37.0644V90.4194H50.3225ZM36.0644 90.4194V78H22.8063V90.4194H36.0644ZM119.935 63.7419V77H107.516V63.7419H119.935ZM106.516 63.7419V77H93.2579V63.7419H106.516ZM92.2579 63.7419V77H78.9999V63.7419H92.2579ZM77.9999 63.7419V77H65.5805V63.7419H77.9999ZM64.5805 63.7419V77H51.3225V63.7419H64.5805ZM50.3225 63.7419V77H37.0644V63.7419H50.3225ZM36.0644 63.7419V77H22.8063V63.7419H36.0644ZM119.935 62.7419V49.4839H107.516V62.7419H119.935ZM106.516 62.7419V49.4839H93.2579V62.7419H106.516ZM92.2579 62.7419V49.4839H78.9999V62.7419H92.2579ZM77.9999 62.7419V49.4839H65.5805V62.7419H77.9999ZM64.5805 62.7419V49.4839H51.3225V62.7419H64.5805ZM50.3225 62.7419V49.4839H37.0644V62.7419H50.3225ZM36.0644 62.7419V49.4839H22.8063V62.7419H36.0644ZM119.935 36.0645V48.4839H107.516V36.0645H119.935ZM106.516 36.0645V48.4839H93.2579V36.0645H106.516ZM92.2579 36.0645V48.4839H78.9999V36.0645H92.2579ZM77.9999 36.0645V48.4839H65.5805V36.0645H77.9999ZM64.5805 36.0645V48.4839H51.3225V36.0645H64.5805ZM50.3225 36.0645V48.4839H37.0644V36.0645H50.3225ZM36.0644 36.0645V48.4839H22.8063V36.0645H36.0644ZM119.935 35.0645V21.8065H107.516V35.0645H119.935ZM106.516 35.0645V21.8065H93.2579V35.0645H106.516ZM92.2579 35.0645V21.8065H78.9999V35.0645H92.2579ZM77.9999 35.0645V21.8065H65.5805V35.0645H77.9999ZM64.5805 35.0645V21.8065H51.3225V35.0645H64.5805ZM50.3225 35.0645V21.8065H37.0644V35.0645H50.3225ZM36.0644 35.0645V21.8065H22.8063V35.0645H36.0644ZM119.935 7.54839V20.8065H107.516V7.54839H119.935ZM106.516 7.54839V20.8065H93.2579V7.54839H106.516ZM92.2579 7.54839V20.8065H78.9999V7.54839H92.2579ZM77.9999 7.54839V20.8065H65.5805V7.54839H77.9999ZM64.5805 7.54839V20.8065H51.3225V7.54839H64.5805ZM50.3225 7.54839V20.8065H37.0644V7.54839H50.3225ZM36.0644 7.54839V20.8065H22.8063V7.54839H36.0644Z" fill="url(#paint0_linear_91_1397)"/>
<defs>
<linearGradient id="paint0_linear_91_1397" x1="17.1935" y1="14.8571" x2="102.199" y2="101.233" gradientUnits="userSpaceOnUse">
<stop stop-color="#14AE5C"/>
<stop offset="1" stop-color="white" stop-opacity="0"/>
</linearGradient>
</defs>
</svg>
