<svg width="651" height="507" viewBox="0 0 651 507" fill="none" xmlns="http://www.w3.org/2000/svg">
<g filter="url(#filter0_d_0_1)">
<rect x="8" y="106.296" width="78.2222" height="47.4074" rx="10" fill="white"/>
<path d="M69.0828 158.999C69.8526 160.333 71.7771 160.333 72.5469 158.999L76.2676 152.555C77.0374 151.221 76.0752 149.555 74.5356 149.555H67.0942C65.5546 149.555 64.5923 151.221 65.3621 152.555L69.0828 158.999Z" fill="white"/>
</g>
<g clip-path="url(#clip0_0_1)">
<path d="M47.1121 122.022C42.0895 122.022 38.0181 122.648 38.0181 123.421C38.0181 124.193 42.0897 125.011 47.1121 125.011C52.1347 125.011 56.2062 124.193 56.2062 123.421C56.2063 122.648 52.1347 122.022 47.1121 122.022Z" fill="#DDDDDD"/>
<path d="M42.3106 122.233C36.0947 122.828 37.0009 124.196 42.7539 124.795C40.1257 124.066 39.5843 122.988 42.3106 122.233ZM31.4176 105.201H28.3625C27.7329 105.201 27.2178 105.716 27.2178 106.345V110.861C27.2178 111.49 27.7329 112.005 28.3625 112.005H31.3182C30.6092 109.787 30.6441 107.398 31.4176 105.201Z" fill="#BFC0C1"/>
<path d="M29.1842 110.861V106.345C29.1842 105.716 29.6993 105.201 30.3289 105.201H28.3625C27.7329 105.201 27.2178 105.716 27.2178 106.345V110.861C27.2178 111.49 27.7329 112.005 28.3625 112.005H30.3288C29.6993 112.005 29.1842 111.49 29.1842 110.861Z" fill="#989DA0"/>
<path d="M65.8622 105.201H62.8071C63.5806 107.398 63.6155 109.787 62.9065 112.005H65.8622C66.4919 112.005 67.0069 111.49 67.0069 110.861V106.345C67.0069 105.716 66.4918 105.201 65.8622 105.201Z" fill="#BFC0C1"/>
<path d="M65.0978 105.201H62.8071C63.5806 107.398 63.6155 109.787 62.9065 112.005H65.1971C65.9061 109.787 65.8713 107.398 65.0978 105.201Z" fill="#989DA0"/>
<path d="M63.6045 108.751C63.6045 102.838 58.7667 98 52.8539 98H41.3706C35.4619 98 30.6201 102.834 30.6201 108.751C30.6201 114.663 35.4579 119.501 41.3707 119.501H52.8541C58.7626 119.501 63.6045 114.667 63.6045 108.751Z" fill="#DDDDDD"/>
<path d="M32.5864 108.751C32.5864 102.838 37.4241 98 43.3369 98H41.3706C35.4676 98 30.6201 102.828 30.6201 108.751C30.6201 114.663 35.4579 119.501 41.3707 119.501H43.337C37.4241 119.501 32.5864 114.663 32.5864 108.751Z" fill="#BFC0C1"/>
<path d="M52.3776 101.214H41.8473C37.7023 101.214 34.311 104.605 34.311 108.75C34.311 112.895 37.7024 116.287 41.8473 116.287H52.3776C56.5226 116.287 59.9139 112.895 59.9139 108.75C59.9139 104.605 56.5226 101.214 52.3776 101.214Z" fill="#585A60"/>
<path d="M36.3058 108.751C36.3058 104.606 39.6972 101.214 43.8421 101.214H41.819C37.674 101.214 34.2827 104.606 34.2827 108.751C34.2827 112.896 37.674 116.287 41.819 116.287H43.8421C39.6971 116.287 36.3058 112.896 36.3058 108.751Z" fill="#414356"/>
<path d="M41.9551 111.274C43.4302 111.274 44.626 110.078 44.626 108.603C44.626 107.128 43.4302 105.932 41.9551 105.932C40.48 105.932 39.2842 107.128 39.2842 108.603C39.2842 110.078 40.48 111.274 41.9551 111.274Z" fill="#6EDCF9"/>
<path d="M52.2691 111.274C53.7442 111.274 54.94 110.078 54.94 108.603C54.94 107.128 53.7442 105.932 52.2691 105.932C50.794 105.932 49.5981 107.128 49.5981 108.603C49.5981 110.078 50.794 111.274 52.2691 111.274Z" fill="#6EDCF9"/>
<path d="M41.2504 108.603C41.2504 107.475 41.9497 106.511 42.9383 106.12C42.6253 105.996 42.2917 105.932 41.9551 105.932C40.4799 105.932 39.2842 107.128 39.2842 108.603C39.2842 110.078 40.48 111.274 41.9551 111.274C42.3024 111.274 42.6339 111.207 42.9383 111.087C41.9497 110.695 41.2504 109.731 41.2504 108.603ZM53.2528 106.12C52.9399 105.996 52.6063 105.932 52.2696 105.932C50.7945 105.932 49.5987 107.128 49.5987 108.603C49.5987 110.486 51.501 111.781 53.2529 111.086C51.0069 110.197 51.0077 107.009 53.2528 106.12Z" fill="#52C7E2"/>
<path d="M56.1271 123.236C56.1792 123.296 56.2065 123.358 56.2065 123.421C56.2065 124.194 52.1348 124.82 47.1124 124.82C41.6295 124.82 37.3734 124.078 38.0978 123.236C35.6897 125.582 34.1934 128.86 34.1934 132.488C34.1934 139.623 39.9773 145.407 47.1123 145.407C54.2473 145.407 60.0314 139.623 60.0314 132.488C60.0314 128.86 58.5352 125.582 56.1271 123.236Z" fill="#DDDDDD"/>
<path d="M39.2372 124.121C38.6954 123.977 37.733 123.66 38.0978 123.236C35.6897 125.582 34.1934 128.86 34.1934 132.488C34.1934 139.623 39.9774 145.407 47.1124 145.407C47.4432 145.407 47.771 145.395 48.0956 145.371C37.5715 144.579 32.4258 132.123 39.2372 124.121Z" fill="#BFC0C1"/>
<path d="M43.0962 127.927C43.1455 128.443 43.1612 128.345 46.3028 131.695C46.7479 132.14 47.4765 132.14 47.9217 131.695C51.0641 128.344 51.079 128.443 51.1283 127.927C48.5368 128.159 45.754 128.165 43.0962 127.927Z" fill="#F7AC16"/>
<path d="M45.3143 128.068C44.5739 128.04 43.8343 127.993 43.0962 127.927C43.1455 128.443 43.1612 128.345 46.3028 131.695C46.7479 132.14 47.4765 132.14 47.9217 131.695L48.2097 131.388C45.361 128.35 45.4048 128.475 45.3143 128.068Z" fill="#EF9614"/>
<path d="M58.6072 126.589C57.9668 125.345 57.1292 124.212 56.1268 123.235C56.1789 123.296 56.2063 123.358 56.2063 123.421C56.2063 124.193 52.1346 124.82 47.1122 124.82C41.6292 124.82 37.3731 124.077 38.0976 123.235C37.0952 124.212 36.2575 125.345 35.6172 126.589C41.8215 128.851 52.3998 128.852 58.6072 126.589Z" fill="#989DA0"/>
<path d="M35.6172 126.589C36.1455 126.782 36.716 126.961 37.3232 127.125C37.8195 126.04 38.4635 125.029 39.2369 124.121C38.6968 123.977 37.7339 123.658 38.0976 123.236C37.0957 124.213 36.2581 125.345 35.6172 126.589Z" fill="#838384"/>
</g>
<g filter="url(#filter1_d_0_1)">
<rect width="78.2222" height="47.4074" rx="10" transform="matrix(-1 0 0 1 484.222 8.29565)" fill="white"/>
<path d="M423.139 60.9993C422.369 62.3326 420.445 62.3326 419.675 60.9993L415.954 54.5548C415.184 53.2215 416.147 51.5548 417.686 51.5548H425.128C426.667 51.5548 427.629 53.2215 426.86 54.5548L423.139 60.9993Z" fill="white"/>
</g>
<path d="M454.988 3.95068H435.234C429.78 3.95068 425.358 8.37256 425.358 13.8272V33.5803C425.358 39.035 429.78 43.4569 435.234 43.4569H454.988C460.442 43.4569 464.864 39.035 464.864 33.5803V13.8272C464.864 8.37256 460.442 3.95068 454.988 3.95068Z" fill="url(#paint0_linear_0_1)"/>
<path opacity="0.9" d="M439.185 29.1359C438.991 29.136 438.798 29.0978 438.618 29.0234C438.438 28.949 438.275 28.8399 438.137 28.7023L434.187 24.7517C434.049 24.6141 433.94 24.4508 433.865 24.271C433.791 24.0912 433.752 23.8984 433.752 23.7038C433.752 23.5092 433.791 23.3165 433.865 23.1367C433.94 22.9569 434.049 22.7935 434.187 22.6559L438.137 18.7053C438.415 18.4274 438.792 18.2712 439.185 18.2712C439.578 18.2712 439.955 18.4274 440.233 18.7053C440.511 18.9832 440.667 19.3602 440.667 19.7532C440.667 20.1462 440.511 20.5232 440.233 20.8011L437.329 23.7038L440.233 26.6065C440.44 26.8137 440.582 27.0778 440.639 27.3652C440.696 27.6527 440.667 27.9507 440.555 28.2215C440.442 28.4922 440.252 28.7237 440.009 28.8865C439.765 29.0492 439.478 29.136 439.185 29.1359ZM451.037 29.1359C450.744 29.136 450.457 29.0492 450.214 28.8865C449.97 28.7237 449.78 28.4922 449.668 28.2215C449.556 27.9507 449.526 27.6527 449.583 27.3652C449.641 27.0778 449.782 26.8137 449.989 26.6065L452.893 23.7038L449.989 20.8011C449.852 20.6635 449.742 20.5001 449.668 20.3203C449.593 20.1405 449.555 19.9478 449.555 19.7532C449.555 19.5586 449.593 19.3659 449.668 19.1861C449.742 19.0063 449.852 18.8429 449.989 18.7053C450.267 18.4274 450.644 18.2712 451.037 18.2712C451.232 18.2712 451.424 18.3096 451.604 18.384C451.784 18.4585 451.947 18.5677 452.085 18.7053L456.036 22.6559C456.173 22.7935 456.282 22.9569 456.357 23.1367C456.431 23.3165 456.47 23.5092 456.47 23.7038C456.47 23.8984 456.431 24.0912 456.357 24.271C456.282 24.4508 456.173 24.6141 456.036 24.7517L452.085 28.7023C451.947 28.8399 451.784 28.949 451.604 29.0234C451.424 29.0978 451.232 29.136 451.037 29.1359Z" fill="white"/>
<path opacity="0.5" d="M443.136 32.0988C442.998 32.0986 442.861 32.0793 442.728 32.0415C442.35 31.9335 442.031 31.6799 441.84 31.3365C441.649 30.9932 441.603 30.5881 441.711 30.2104L445.661 16.3832C445.712 16.1927 445.8 16.0142 445.92 15.858C446.04 15.7019 446.19 15.5713 446.361 15.4739C446.533 15.3765 446.722 15.3143 446.917 15.2908C447.113 15.2674 447.311 15.2831 447.501 15.3373C447.69 15.3914 447.867 15.4828 448.021 15.6061C448.174 15.7293 448.302 15.882 448.396 16.0552C448.49 16.2284 448.548 16.4186 448.568 16.6146C448.587 16.8107 448.568 17.0087 448.51 17.197L444.559 31.0242C444.471 31.3336 444.284 31.6057 444.027 31.7996C443.771 31.9935 443.458 32.0985 443.136 32.0988Z" fill="white"/>
<g filter="url(#filter2_d_0_1)">
<rect x="630.399" y="485" width="110.399" height="54.8148" rx="10" transform="rotate(180 630.399 485)" fill="white"/>
<path d="M539.546 423.593C538.776 422.26 536.851 422.26 536.082 423.593L531.238 431.982C530.468 433.315 531.431 434.982 532.97 434.982H542.657C544.197 434.982 545.159 433.315 544.389 431.982L539.546 423.593Z" fill="white"/>
</g>
<path d="M593.523 462.037V462.983H567.061V462.037C567.061 462.037 572.731 461.092 572.731 455.422V454.477H587.852V455.422C587.852 461.092 593.523 462.037 593.523 462.037Z" fill="#B5BBC6"/>
<path d="M593.52 462.038H567.058C566.014 462.038 565.168 462.884 565.168 463.928C565.168 464.972 566.014 465.818 567.058 465.818H593.52C594.564 465.818 595.411 464.972 595.411 463.928C595.411 462.884 594.564 462.038 593.52 462.038Z" fill="#CCD0DA"/>
<path d="M607.698 448.806V452.587C607.698 454.155 606.431 455.422 604.862 455.422H555.718C554.149 455.422 552.883 454.155 552.883 452.587V448.806L553.828 446.916H606.753L607.698 448.806Z" fill="#CCD0DA"/>
<path d="M607.698 413.835V448.803H552.883V413.835C552.883 412.266 554.149 411 555.718 411H604.862C606.431 411 607.698 412.266 607.698 413.835Z" fill="#494949"/>
<path d="M574.619 426.115C574.495 426.115 574.372 426.091 574.257 426.043C574.143 425.996 574.038 425.926 573.951 425.838L569.225 421.113C569.137 421.025 569.068 420.921 569.02 420.806C568.973 420.691 568.948 420.568 568.948 420.444C568.948 420.32 568.973 420.197 569.02 420.083C569.068 419.968 569.137 419.864 569.225 419.776L573.951 415.051C574.128 414.874 574.368 414.774 574.619 414.774C574.87 414.774 575.11 414.874 575.287 415.051C575.464 415.228 575.564 415.468 575.564 415.719C575.564 415.97 575.464 416.21 575.287 416.387L571.23 420.444L575.287 424.502C575.42 424.634 575.51 424.802 575.547 424.985C575.583 425.169 575.565 425.359 575.493 425.532C575.422 425.705 575.3 425.853 575.145 425.956C574.989 426.06 574.806 426.115 574.619 426.115ZM585.96 426.115C585.773 426.115 585.59 426.06 585.434 425.956C585.278 425.853 585.157 425.705 585.086 425.532C585.014 425.359 584.995 425.169 585.032 424.985C585.069 424.802 585.159 424.634 585.292 424.502L589.349 420.444L585.292 416.387C585.204 416.299 585.134 416.195 585.087 416.081C585.039 415.966 585.015 415.843 585.015 415.719C585.015 415.595 585.039 415.472 585.087 415.357C585.134 415.243 585.204 415.138 585.292 415.051C585.379 414.963 585.484 414.893 585.598 414.846C585.713 414.798 585.836 414.774 585.96 414.774C586.084 414.774 586.207 414.798 586.322 414.846C586.436 414.893 586.54 414.963 586.628 415.051L591.354 419.776C591.441 419.864 591.511 419.968 591.559 420.083C591.606 420.197 591.631 420.32 591.631 420.444C591.631 420.568 591.606 420.691 591.559 420.806C591.511 420.921 591.441 421.025 591.354 421.113L586.628 425.838C586.54 425.926 586.436 425.996 586.322 426.043C586.207 426.091 586.084 426.115 585.96 426.115ZM578.399 427.06C578.249 427.06 578.102 427.024 577.969 426.956C577.835 426.888 577.72 426.789 577.633 426.667C577.545 426.545 577.488 426.405 577.465 426.257C577.443 426.109 577.456 425.957 577.503 425.815L581.284 414.474C581.322 414.355 581.383 414.245 581.464 414.149C581.545 414.054 581.644 413.976 581.756 413.919C581.868 413.862 581.989 413.828 582.114 413.819C582.239 413.81 582.364 413.825 582.483 413.865C582.602 413.905 582.712 413.967 582.806 414.05C582.9 414.132 582.977 414.232 583.032 414.345C583.087 414.457 583.12 414.579 583.127 414.704C583.135 414.829 583.118 414.954 583.076 415.072L579.296 426.413C579.233 426.602 579.113 426.765 578.952 426.881C578.792 426.997 578.598 427.06 578.399 427.06ZM559.498 430.84H558.553C558.302 430.84 558.061 430.741 557.884 430.563C557.707 430.386 557.607 430.146 557.607 429.895C557.607 429.645 557.707 429.404 557.884 429.227C558.061 429.05 558.302 428.95 558.553 428.95H559.498C559.748 428.95 559.989 429.05 560.166 429.227C560.343 429.404 560.443 429.645 560.443 429.895C560.443 430.146 560.343 430.386 560.166 430.563C559.989 430.741 559.748 430.84 559.498 430.84Z" fill="white"/>
<path d="M578.402 430.848H564.225C563.975 430.848 563.734 430.749 563.557 430.571C563.38 430.394 563.28 430.154 563.28 429.903C563.28 429.652 563.38 429.412 563.557 429.235C563.734 429.058 563.975 428.958 564.225 428.958H578.402C578.652 428.958 578.893 429.058 579.07 429.235C579.247 429.412 579.347 429.652 579.347 429.903C579.347 430.154 579.247 430.394 579.07 430.571C578.893 430.749 578.652 430.848 578.402 430.848Z" fill="#4ED8D5"/>
<path d="M588.794 430.848H582.178C581.928 430.848 581.687 430.749 581.51 430.571C581.333 430.394 581.233 430.154 581.233 429.903C581.233 429.652 581.333 429.412 581.51 429.235C581.687 429.058 581.928 428.958 582.178 428.958H588.794C589.045 428.958 589.285 429.058 589.462 429.235C589.64 429.412 589.739 429.652 589.739 429.903C589.739 430.154 589.64 430.394 589.462 430.571C589.285 430.749 589.045 430.848 588.794 430.848Z" fill="#A696F0"/>
<path d="M559.497 435.573H558.552C558.301 435.573 558.061 435.473 557.884 435.296C557.707 435.118 557.607 434.878 557.607 434.627C557.607 434.377 557.707 434.136 557.884 433.959C558.061 433.782 558.301 433.682 558.552 433.682H559.497C559.748 433.682 559.988 433.782 560.165 433.959C560.343 434.136 560.442 434.377 560.442 434.627C560.442 434.878 560.343 435.118 560.165 435.296C559.988 435.473 559.748 435.573 559.497 435.573Z" fill="white"/>
<path d="M581.233 435.573H567.057C566.806 435.573 566.566 435.473 566.389 435.296C566.211 435.118 566.112 434.878 566.112 434.627C566.112 434.377 566.211 434.136 566.389 433.959C566.566 433.782 566.806 433.682 567.057 433.682H581.233C581.484 433.682 581.724 433.782 581.901 433.959C582.079 434.136 582.178 434.377 582.178 434.627C582.178 434.878 582.079 435.118 581.901 435.296C581.724 435.473 581.484 435.573 581.233 435.573Z" fill="#F9DC4E"/>
<path d="M593.521 435.573H585.015C584.764 435.573 584.524 435.473 584.347 435.296C584.169 435.118 584.07 434.878 584.07 434.627C584.07 434.377 584.169 434.136 584.347 433.959C584.524 433.782 584.764 433.682 585.015 433.682H593.521C593.771 433.682 594.012 433.782 594.189 433.959C594.366 434.136 594.466 434.377 594.466 434.627C594.466 434.878 594.366 435.118 594.189 435.296C594.012 435.473 593.771 435.573 593.521 435.573Z" fill="#4ED8D5"/>
<path d="M559.497 440.297H558.552C558.301 440.297 558.061 440.197 557.884 440.02C557.707 439.843 557.607 439.602 557.607 439.352C557.607 439.101 557.707 438.861 557.884 438.684C558.061 438.506 558.301 438.407 558.552 438.407H559.497C559.748 438.407 559.988 438.506 560.165 438.684C560.343 438.861 560.442 439.101 560.442 439.352C560.442 439.602 560.343 439.843 560.165 440.02C559.988 440.197 559.748 440.297 559.497 440.297Z" fill="white"/>
<path d="M578.402 440.297H564.225C563.975 440.297 563.734 440.197 563.557 440.02C563.38 439.843 563.28 439.602 563.28 439.352C563.28 439.101 563.38 438.861 563.557 438.684C563.734 438.506 563.975 438.407 564.225 438.407H578.402C578.652 438.407 578.893 438.506 579.07 438.684C579.247 438.861 579.347 439.101 579.347 439.352C579.347 439.602 579.247 439.843 579.07 440.02C578.893 440.197 578.652 440.297 578.402 440.297Z" fill="#4ED8D5"/>
<path d="M588.794 440.297H582.178C581.928 440.297 581.687 440.197 581.51 440.02C581.333 439.843 581.233 439.602 581.233 439.352C581.233 439.101 581.333 438.861 581.51 438.684C581.687 438.506 581.928 438.407 582.178 438.407H588.794C589.045 438.407 589.285 438.506 589.462 438.684C589.64 438.861 589.739 439.101 589.739 439.352C589.739 439.602 589.64 439.843 589.462 440.02C589.285 440.197 589.045 440.297 588.794 440.297Z" fill="#A696F0"/>
<path d="M559.497 445.021H558.552C558.301 445.021 558.061 444.922 557.884 444.744C557.707 444.567 557.607 444.327 557.607 444.076C557.607 443.826 557.707 443.585 557.884 443.408C558.061 443.231 558.301 443.131 558.552 443.131H559.497C559.748 443.131 559.988 443.231 560.165 443.408C560.343 443.585 560.442 443.826 560.442 444.076C560.442 444.327 560.343 444.567 560.165 444.744C559.988 444.922 559.748 445.021 559.497 445.021Z" fill="white"/>
<path d="M602.025 435.573H597.3C597.049 435.573 596.809 435.473 596.632 435.296C596.455 435.118 596.355 434.878 596.355 434.627C596.355 434.377 596.455 434.136 596.632 433.959C596.809 433.782 597.049 433.682 597.3 433.682H602.025C602.276 433.682 602.517 433.782 602.694 433.959C602.871 434.136 602.971 434.377 602.971 434.627C602.971 434.878 602.871 435.118 602.694 435.296C602.517 435.473 602.276 435.573 602.025 435.573Z" fill="#A696F0"/>
<path d="M581.233 445.021H567.057C566.806 445.021 566.566 444.922 566.389 444.744C566.211 444.567 566.112 444.327 566.112 444.076C566.112 443.826 566.211 443.585 566.389 443.408C566.566 443.231 566.806 443.131 567.057 443.131H581.233C581.484 443.131 581.724 443.231 581.901 443.408C582.079 443.585 582.178 443.826 582.178 444.076C582.178 444.327 582.079 444.567 581.901 444.744C581.724 444.922 581.484 445.021 581.233 445.021Z" fill="#F9DC4E"/>
<path d="M593.521 445.021H585.015C584.764 445.021 584.524 444.922 584.347 444.744C584.169 444.567 584.07 444.327 584.07 444.076C584.07 443.826 584.169 443.585 584.347 443.408C584.524 443.231 584.764 443.131 585.015 443.131H593.521C593.771 443.131 594.012 443.231 594.189 443.408C594.366 443.585 594.466 443.826 594.466 444.076C594.466 444.327 594.366 444.567 594.189 444.744C594.012 444.922 593.771 445.021 593.521 445.021Z" fill="#4ED8D5"/>
<path d="M602.025 445.021H597.3C597.049 445.021 596.809 444.922 596.632 444.744C596.455 444.567 596.355 444.327 596.355 444.076C596.355 443.826 596.455 443.585 596.632 443.408C596.809 443.231 597.049 443.131 597.3 443.131H602.025C602.276 443.131 602.517 443.231 602.694 443.408C602.871 443.585 602.971 443.826 602.971 444.076C602.971 444.327 602.871 444.567 602.694 444.744C602.517 444.922 602.276 445.021 602.025 445.021Z" fill="#A696F0"/>
<defs>
<filter id="filter0_d_0_1" x="0" y="100.296" width="106.222" height="81.7036" filterUnits="userSpaceOnUse" color-interpolation-filters="sRGB">
<feFlood flood-opacity="0" result="BackgroundImageFix"/>
<feColorMatrix in="SourceAlpha" type="matrix" values="0 0 0 0 0 0 0 0 0 0 0 0 0 0 0 0 0 0 127 0" result="hardAlpha"/>
<feOffset dx="6" dy="8"/>
<feGaussianBlur stdDeviation="7"/>
<feComposite in2="hardAlpha" operator="out"/>
<feColorMatrix type="matrix" values="0 0 0 0 0.796078 0 0 0 0 0.698039 0 0 0 0 0.392157 0 0 0 0.14 0"/>
<feBlend mode="normal" in2="BackgroundImageFix" result="effect1_dropShadow_0_1"/>
<feBlend mode="normal" in="SourceGraphic" in2="effect1_dropShadow_0_1" result="shape"/>
</filter>
<filter id="filter1_d_0_1" x="398" y="2.29565" width="106.222" height="81.7036" filterUnits="userSpaceOnUse" color-interpolation-filters="sRGB">
<feFlood flood-opacity="0" result="BackgroundImageFix"/>
<feColorMatrix in="SourceAlpha" type="matrix" values="0 0 0 0 0 0 0 0 0 0 0 0 0 0 0 0 0 0 127 0" result="hardAlpha"/>
<feOffset dx="6" dy="8"/>
<feGaussianBlur stdDeviation="7"/>
<feComposite in2="hardAlpha" operator="out"/>
<feColorMatrix type="matrix" values="0 0 0 0 0.796078 0 0 0 0 0.698039 0 0 0 0 0.392157 0 0 0 0.14 0"/>
<feBlend mode="normal" in2="BackgroundImageFix" result="effect1_dropShadow_0_1"/>
<feBlend mode="normal" in="SourceGraphic" in2="effect1_dropShadow_0_1" result="shape"/>
</filter>
<filter id="filter2_d_0_1" x="512" y="416.593" width="138.399" height="90.4067" filterUnits="userSpaceOnUse" color-interpolation-filters="sRGB">
<feFlood flood-opacity="0" result="BackgroundImageFix"/>
<feColorMatrix in="SourceAlpha" type="matrix" values="0 0 0 0 0 0 0 0 0 0 0 0 0 0 0 0 0 0 127 0" result="hardAlpha"/>
<feOffset dx="6" dy="8"/>
<feGaussianBlur stdDeviation="7"/>
<feComposite in2="hardAlpha" operator="out"/>
<feColorMatrix type="matrix" values="0 0 0 0 0.796078 0 0 0 0 0.698039 0 0 0 0 0.392157 0 0 0 0.14 0"/>
<feBlend mode="normal" in2="BackgroundImageFix" result="effect1_dropShadow_0_1"/>
<feBlend mode="normal" in="SourceGraphic" in2="effect1_dropShadow_0_1" result="shape"/>
</filter>
<linearGradient id="paint0_linear_0_1" x1="429.91" y1="8.50278" x2="461.525" y2="40.1176" gradientUnits="userSpaceOnUse">
<stop stop-color="#9B8DFF"/>
<stop offset="0.252" stop-color="#7D79FD"/>
<stop offset="0.555" stop-color="#5F65FB"/>
<stop offset="0.815" stop-color="#4D58F9"/>
<stop offset="1" stop-color="#4654F9"/>
</linearGradient>
<clipPath id="clip0_0_1">
<rect width="47.4074" height="47.4074" fill="white" transform="translate(23.4087 98)"/>
</clipPath>
</defs>
</svg>
