<svg width="674" height="561" viewBox="0 0 674 561" fill="none" xmlns="http://www.w3.org/2000/svg">
<g filter="url(#filter0_d_0_1)">
<rect x="8" y="200.296" width="78.2222" height="47.4074" rx="10" fill="white"/>
<path d="M69.0828 253C69.8526 254.333 71.7771 254.333 72.5469 253L76.2676 246.555C77.0374 245.222 76.0752 243.555 74.5356 243.555H67.0942C65.5546 243.555 64.5923 245.222 65.3621 246.555L69.0828 253Z" fill="white"/>
</g>
<g clip-path="url(#clip0_0_1)">
<path d="M47.1123 216.022C42.0897 216.022 38.0182 216.648 38.0182 217.421C38.0182 218.194 42.0899 219.011 47.1123 219.011C52.1349 219.011 56.2063 218.194 56.2063 217.421C56.2064 216.648 52.1349 216.022 47.1123 216.022Z" fill="#DDDDDD"/>
<path d="M42.3106 216.233C36.0947 216.828 37.0009 218.196 42.7539 218.795C40.1257 218.066 39.5843 216.988 42.3106 216.233ZM31.4176 199.201H28.3625C27.7329 199.201 27.2178 199.716 27.2178 200.345V204.861C27.2178 205.49 27.7329 206.005 28.3625 206.005H31.3182C30.6092 203.787 30.6441 201.398 31.4176 199.201Z" fill="#BFC0C1"/>
<path d="M29.1842 204.861V200.345C29.1842 199.716 29.6993 199.201 30.3289 199.201H28.3625C27.7329 199.201 27.2178 199.716 27.2178 200.345V204.861C27.2178 205.49 27.7329 206.005 28.3625 206.005H30.3288C29.6993 206.005 29.1842 205.49 29.1842 204.861Z" fill="#989DA0"/>
<path d="M65.8621 199.201H62.807C63.5805 201.398 63.6153 203.787 62.9064 206.005H65.8621C66.4917 206.005 67.0068 205.49 67.0068 204.861V200.345C67.0068 199.716 66.4916 199.201 65.8621 199.201Z" fill="#BFC0C1"/>
<path d="M65.0977 199.201H62.807C63.5805 201.398 63.6153 203.787 62.9064 206.005H65.197C65.906 203.787 65.8711 201.398 65.0977 199.201Z" fill="#989DA0"/>
<path d="M63.6046 202.751C63.6046 196.838 58.7668 192 52.854 192H41.3707C35.462 192 30.6202 196.834 30.6202 202.751C30.6202 208.663 35.458 213.501 41.3708 213.501H52.8542C58.7627 213.501 63.6046 208.667 63.6046 202.751Z" fill="#DDDDDD"/>
<path d="M32.5865 202.751C32.5865 196.838 37.4242 192 43.337 192H41.3707C35.4677 192 30.6202 196.828 30.6202 202.751C30.6202 208.663 35.458 213.501 41.3708 213.501H43.3371C37.4242 213.501 32.5865 208.663 32.5865 202.751Z" fill="#BFC0C1"/>
<path d="M52.3774 195.214H41.8471C37.7021 195.214 34.3108 198.606 34.3108 202.751C34.3108 206.896 37.7022 210.287 41.8471 210.287H52.3774C56.5224 210.287 59.9137 206.896 59.9137 202.751C59.9137 198.606 56.5224 195.214 52.3774 195.214Z" fill="#585A60"/>
<path d="M36.3055 202.751C36.3055 198.606 39.6969 195.214 43.8418 195.214H41.8188C37.6738 195.214 34.2825 198.606 34.2825 202.751C34.2825 206.896 37.6738 210.287 41.8188 210.287H43.8418C39.6968 210.287 36.3055 206.896 36.3055 202.751Z" fill="#414356"/>
<path d="M41.9552 205.274C43.4303 205.274 44.6262 204.078 44.6262 202.603C44.6262 201.128 43.4303 199.932 41.9552 199.932C40.4801 199.932 39.2843 201.128 39.2843 202.603C39.2843 204.078 40.4801 205.274 41.9552 205.274Z" fill="#6EDCF9"/>
<path d="M52.2692 205.274C53.7443 205.274 54.9401 204.078 54.9401 202.603C54.9401 201.128 53.7443 199.932 52.2692 199.932C50.7941 199.932 49.5983 201.128 49.5983 202.603C49.5983 204.078 50.7941 205.274 52.2692 205.274Z" fill="#6EDCF9"/>
<path d="M41.2504 202.603C41.2504 201.475 41.9497 200.511 42.9383 200.12C42.6253 199.996 42.2917 199.932 41.9551 199.932C40.4799 199.932 39.2842 201.128 39.2842 202.603C39.2842 204.078 40.48 205.274 41.9551 205.274C42.3024 205.274 42.6339 205.207 42.9383 205.087C41.9497 204.695 41.2504 203.731 41.2504 202.603ZM53.2528 200.12C52.9399 199.996 52.6063 199.932 52.2696 199.932C50.7945 199.932 49.5987 201.128 49.5987 202.603C49.5987 204.486 51.501 205.781 53.2529 205.086C51.0069 204.197 51.0077 201.009 53.2528 200.12Z" fill="#52C7E2"/>
<path d="M56.1271 217.235C56.1792 217.296 56.2065 217.358 56.2065 217.421C56.2065 218.193 52.1348 218.82 47.1124 218.82C41.6295 218.82 37.3734 218.077 38.0978 217.235C35.6897 219.582 34.1934 222.86 34.1934 226.488C34.1934 233.623 39.9773 239.407 47.1123 239.407C54.2473 239.407 60.0314 233.623 60.0314 226.488C60.0314 222.86 58.5352 219.582 56.1271 217.235Z" fill="#DDDDDD"/>
<path d="M39.2369 218.121C38.6952 217.977 37.7327 217.66 38.0976 217.235C35.6894 219.582 34.1931 222.86 34.1931 226.488C34.1931 233.623 39.9772 239.407 47.1122 239.407C47.4429 239.407 47.7708 239.395 48.0953 239.37C37.5713 238.578 32.4255 226.123 39.2369 218.121Z" fill="#BFC0C1"/>
<path d="M43.0963 221.927C43.1456 222.443 43.1613 222.345 46.3029 225.695C46.7481 226.14 47.4766 226.14 47.9218 225.695C51.0642 222.344 51.0791 222.443 51.1284 221.927C48.537 222.159 45.7541 222.165 43.0963 221.927Z" fill="#F7AC16"/>
<path d="M45.3145 222.068C44.574 222.04 43.8344 221.993 43.0963 221.927C43.1456 222.443 43.1613 222.345 46.3029 225.695C46.7481 226.14 47.4766 226.14 47.9218 225.695L48.2098 225.388C45.3611 222.35 45.4049 222.475 45.3145 222.068Z" fill="#EF9614"/>
<path d="M58.6074 220.589C57.967 219.345 57.1294 218.212 56.1271 217.235C56.1792 217.296 56.2065 217.358 56.2065 217.421C56.2065 218.193 52.1348 218.82 47.1124 218.82C41.6295 218.82 37.3734 218.077 38.0978 217.235C37.0954 218.212 36.2578 219.345 35.6174 220.589C41.8218 222.851 52.4 222.852 58.6074 220.589Z" fill="#989DA0"/>
<path d="M35.6172 220.589C36.1455 220.781 36.716 220.961 37.3232 221.125C37.8195 220.04 38.4635 219.029 39.2369 218.121C38.6968 217.977 37.7339 217.658 38.0976 217.235C37.0957 218.212 36.2581 219.345 35.6172 220.589Z" fill="#838384"/>
</g>
<g filter="url(#filter1_d_0_1)">
<rect width="78.2222" height="47.4074" rx="10" transform="matrix(-1 0 0 1 507.222 8.2959)" fill="white"/>
<path d="M446.139 60.9995C445.369 62.3328 443.445 62.3328 442.675 60.9995L438.954 54.5551C438.184 53.2217 439.147 51.5551 440.686 51.5551H448.128C449.667 51.5551 450.629 53.2217 449.86 54.5551L446.139 60.9995Z" fill="white"/>
</g>
<path d="M477.988 3.95068H458.235C452.78 3.95068 448.358 8.37256 448.358 13.8272V33.5803C448.358 39.035 452.78 43.4569 458.235 43.4569H477.988C483.442 43.4569 487.864 39.035 487.864 33.5803V13.8272C487.864 8.37256 483.442 3.95068 477.988 3.95068Z" fill="url(#paint0_linear_0_1)"/>
<path opacity="0.9" d="M462.185 29.1357C461.991 29.1358 461.798 29.0975 461.618 29.0231C461.438 28.9487 461.275 28.8396 461.137 28.7021L457.187 24.7515C457.049 24.6139 456.94 24.4505 456.865 24.2707C456.791 24.0909 456.752 23.8982 456.752 23.7036C456.752 23.5089 456.791 23.3162 456.865 23.1364C456.94 22.9566 457.049 22.7932 457.187 22.6557L461.137 18.7051C461.415 18.4271 461.792 18.271 462.185 18.271C462.578 18.271 462.955 18.4271 463.233 18.7051C463.511 18.983 463.667 19.3599 463.667 19.753C463.667 20.146 463.511 20.5229 463.233 20.8009L460.329 23.7036L463.233 26.6063C463.44 26.8135 463.582 27.0775 463.639 27.365C463.696 27.6524 463.667 27.9504 463.555 28.2212C463.442 28.492 463.252 28.7234 463.009 28.8862C462.765 29.049 462.478 29.1358 462.185 29.1357ZM474.037 29.1357C473.744 29.1358 473.457 29.049 473.214 28.8862C472.97 28.7234 472.78 28.492 472.668 28.2212C472.556 27.9504 472.526 27.6524 472.583 27.365C472.641 27.0775 472.782 26.8135 472.989 26.6063L475.893 23.7036L472.989 20.8009C472.852 20.6632 472.742 20.4999 472.668 20.3201C472.593 20.1403 472.555 19.9476 472.555 19.753C472.555 19.5583 472.593 19.3656 472.668 19.1858C472.742 19.006 472.852 18.8427 472.989 18.7051C473.267 18.4271 473.644 18.271 474.037 18.271C474.232 18.271 474.424 18.3093 474.604 18.3838C474.784 18.4583 474.947 18.5674 475.085 18.7051L479.036 22.6557C479.173 22.7932 479.282 22.9566 479.357 23.1364C479.431 23.3162 479.47 23.5089 479.47 23.7036C479.47 23.8982 479.431 24.0909 479.357 24.2707C479.282 24.4505 479.173 24.6139 479.036 24.7515L475.085 28.7021C474.947 28.8396 474.784 28.9487 474.604 29.0231C474.424 29.0975 474.232 29.1358 474.037 29.1357Z" fill="white"/>
<path opacity="0.5" d="M466.136 32.0988C465.998 32.0986 465.861 32.0793 465.728 32.0415C465.35 31.9335 465.031 31.6799 464.84 31.3365C464.649 30.9932 464.603 30.5881 464.711 30.2104L468.661 16.3832C468.712 16.1927 468.8 16.0142 468.92 15.858C469.04 15.7019 469.19 15.5713 469.361 15.4739C469.533 15.3765 469.722 15.3143 469.917 15.2908C470.113 15.2674 470.311 15.2831 470.501 15.3373C470.69 15.3914 470.867 15.4828 471.021 15.6061C471.174 15.7293 471.302 15.882 471.396 16.0552C471.49 16.2284 471.548 16.4186 471.568 16.6146C471.587 16.8107 471.568 17.0087 471.51 17.197L467.559 31.0242C467.471 31.3336 467.284 31.6057 467.027 31.7996C466.771 31.9935 466.458 32.0985 466.136 32.0988Z" fill="white"/>
<g filter="url(#filter2_d_0_1)">
<rect x="653.399" y="539" width="110.399" height="54.8148" rx="10" transform="rotate(180 653.399 539)" fill="white"/>
<path d="M562.546 477.593C561.776 476.26 559.851 476.26 559.082 477.593L554.238 485.982C553.468 487.315 554.431 488.982 555.97 488.982H565.657C567.197 488.982 568.159 487.315 567.389 485.982L562.546 477.593Z" fill="white"/>
</g>
<path d="M616.522 516.037V516.982H590.06V516.037C590.06 516.037 595.731 515.092 595.731 509.422V508.477H610.852V509.422C610.852 515.092 616.522 516.037 616.522 516.037Z" fill="#B5BBC6"/>
<path d="M616.52 516.038H590.058C589.014 516.038 588.168 516.884 588.168 517.928C588.168 518.972 589.014 519.818 590.058 519.818H616.52C617.564 519.818 618.41 518.972 618.41 517.928C618.41 516.884 617.564 516.038 616.52 516.038Z" fill="#CCD0DA"/>
<path d="M630.697 502.806V506.587C630.697 508.155 629.431 509.422 627.862 509.422H578.718C577.149 509.422 575.883 508.155 575.883 506.587V502.806L576.828 500.916H629.752L630.697 502.806Z" fill="#CCD0DA"/>
<path d="M630.697 467.835V502.803H575.883V467.835C575.883 466.266 577.149 465 578.718 465H627.862C629.431 465 630.697 466.266 630.697 467.835Z" fill="#494949"/>
<path d="M597.619 480.115C597.495 480.115 597.372 480.091 597.257 480.043C597.142 479.996 597.038 479.926 596.95 479.838L592.225 475.113C592.137 475.025 592.068 474.921 592.02 474.806C591.972 474.691 591.948 474.568 591.948 474.444C591.948 474.32 591.972 474.197 592.02 474.083C592.068 473.968 592.137 473.864 592.225 473.776L596.95 469.051C597.128 468.874 597.368 468.774 597.619 468.774C597.869 468.774 598.11 468.874 598.287 469.051C598.464 469.228 598.564 469.468 598.564 469.719C598.564 469.97 598.464 470.21 598.287 470.387L594.23 474.444L598.287 478.502C598.419 478.634 598.51 478.802 598.547 478.985C598.583 479.169 598.565 479.359 598.493 479.532C598.421 479.705 598.3 479.853 598.144 479.956C597.989 480.06 597.806 480.115 597.619 480.115ZM608.96 480.115C608.773 480.115 608.59 480.06 608.434 479.956C608.278 479.853 608.157 479.705 608.085 479.532C608.014 479.359 607.995 479.169 608.032 478.985C608.069 478.802 608.159 478.634 608.291 478.502L612.349 474.444L608.291 470.387C608.204 470.299 608.134 470.195 608.087 470.081C608.039 469.966 608.015 469.843 608.015 469.719C608.015 469.595 608.039 469.472 608.087 469.357C608.134 469.243 608.204 469.138 608.291 469.051C608.379 468.963 608.483 468.893 608.598 468.846C608.713 468.798 608.836 468.774 608.96 468.774C609.084 468.774 609.207 468.798 609.321 468.846C609.436 468.893 609.54 468.963 609.628 469.051L614.353 473.776C614.441 473.864 614.511 473.968 614.558 474.083C614.606 474.197 614.63 474.32 614.63 474.444C614.63 474.568 614.606 474.691 614.558 474.806C614.511 474.921 614.441 475.025 614.353 475.113L609.628 479.838C609.54 479.926 609.436 479.996 609.321 480.043C609.207 480.091 609.084 480.115 608.96 480.115ZM601.399 481.06C601.249 481.06 601.102 481.024 600.968 480.956C600.835 480.888 600.72 480.789 600.632 480.667C600.545 480.545 600.488 480.405 600.465 480.257C600.443 480.109 600.456 479.957 600.503 479.815L604.283 468.474C604.321 468.355 604.383 468.245 604.464 468.149C604.545 468.054 604.644 467.976 604.756 467.919C604.867 467.862 604.989 467.828 605.114 467.819C605.239 467.81 605.364 467.825 605.483 467.865C605.602 467.905 605.711 467.967 605.806 468.05C605.9 468.132 605.977 468.232 606.032 468.345C606.087 468.457 606.12 468.579 606.127 468.704C606.135 468.829 606.117 468.954 606.076 469.072L602.296 480.413C602.233 480.602 602.113 480.765 601.952 480.881C601.791 480.997 601.597 481.06 601.399 481.06ZM582.497 484.84H581.552C581.302 484.84 581.061 484.741 580.884 484.563C580.707 484.386 580.607 484.146 580.607 483.895C580.607 483.645 580.707 483.404 580.884 483.227C581.061 483.05 581.302 482.95 581.552 482.95H582.497C582.748 482.95 582.988 483.05 583.166 483.227C583.343 483.404 583.442 483.645 583.442 483.895C583.442 484.146 583.343 484.386 583.166 484.563C582.988 484.741 582.748 484.84 582.497 484.84Z" fill="white"/>
<path d="M601.401 484.848H587.225C586.974 484.848 586.734 484.749 586.557 484.571C586.379 484.394 586.28 484.154 586.28 483.903C586.28 483.652 586.379 483.412 586.557 483.235C586.734 483.058 586.974 482.958 587.225 482.958H601.401C601.652 482.958 601.892 483.058 602.069 483.235C602.247 483.412 602.346 483.652 602.346 483.903C602.346 484.154 602.247 484.394 602.069 484.571C601.892 484.749 601.652 484.848 601.401 484.848Z" fill="#4ED8D5"/>
<path d="M611.794 484.848H605.178C604.928 484.848 604.687 484.749 604.51 484.571C604.333 484.394 604.233 484.154 604.233 483.903C604.233 483.652 604.333 483.412 604.51 483.235C604.687 483.058 604.928 482.958 605.178 482.958H611.794C612.045 482.958 612.285 483.058 612.462 483.235C612.64 483.412 612.739 483.652 612.739 483.903C612.739 484.154 612.64 484.394 612.462 484.571C612.285 484.749 612.045 484.848 611.794 484.848Z" fill="#A696F0"/>
<path d="M582.497 489.573H581.552C581.301 489.573 581.061 489.473 580.884 489.296C580.707 489.119 580.607 488.878 580.607 488.628C580.607 488.377 580.707 488.137 580.884 487.959C581.061 487.782 581.301 487.683 581.552 487.683H582.497C582.748 487.683 582.988 487.782 583.165 487.959C583.343 488.137 583.442 488.377 583.442 488.628C583.442 488.878 583.343 489.119 583.165 489.296C582.988 489.473 582.748 489.573 582.497 489.573Z" fill="white"/>
<path d="M604.233 489.573H590.057C589.806 489.573 589.566 489.473 589.388 489.296C589.211 489.119 589.112 488.878 589.112 488.628C589.112 488.377 589.211 488.137 589.388 487.959C589.566 487.782 589.806 487.683 590.057 487.683H604.233C604.484 487.683 604.724 487.782 604.901 487.959C605.078 488.137 605.178 488.377 605.178 488.628C605.178 488.878 605.078 489.119 604.901 489.296C604.724 489.473 604.484 489.573 604.233 489.573Z" fill="#F9DC4E"/>
<path d="M616.521 489.573H608.015C607.764 489.573 607.524 489.473 607.347 489.296C607.169 489.119 607.07 488.878 607.07 488.628C607.07 488.377 607.169 488.137 607.347 487.959C607.524 487.782 607.764 487.683 608.015 487.683H616.521C616.771 487.683 617.012 487.782 617.189 487.959C617.366 488.137 617.466 488.377 617.466 488.628C617.466 488.878 617.366 489.119 617.189 489.296C617.012 489.473 616.771 489.573 616.521 489.573Z" fill="#4ED8D5"/>
<path d="M582.497 494.297H581.552C581.301 494.297 581.061 494.197 580.884 494.02C580.707 493.843 580.607 493.602 580.607 493.352C580.607 493.101 580.707 492.861 580.884 492.684C581.061 492.506 581.301 492.407 581.552 492.407H582.497C582.748 492.407 582.988 492.506 583.165 492.684C583.343 492.861 583.442 493.101 583.442 493.352C583.442 493.602 583.343 493.843 583.165 494.02C582.988 494.197 582.748 494.297 582.497 494.297Z" fill="white"/>
<path d="M601.401 494.297H587.225C586.974 494.297 586.734 494.197 586.557 494.02C586.379 493.843 586.28 493.602 586.28 493.352C586.28 493.101 586.379 492.861 586.557 492.684C586.734 492.506 586.974 492.407 587.225 492.407H601.401C601.652 492.407 601.892 492.506 602.069 492.684C602.247 492.861 602.346 493.101 602.346 493.352C602.346 493.602 602.247 493.843 602.069 494.02C601.892 494.197 601.652 494.297 601.401 494.297Z" fill="#4ED8D5"/>
<path d="M611.794 494.297H605.178C604.928 494.297 604.687 494.197 604.51 494.02C604.333 493.843 604.233 493.602 604.233 493.352C604.233 493.101 604.333 492.861 604.51 492.684C604.687 492.506 604.928 492.407 605.178 492.407H611.794C612.045 492.407 612.285 492.506 612.462 492.684C612.64 492.861 612.739 493.101 612.739 493.352C612.739 493.602 612.64 493.843 612.462 494.02C612.285 494.197 612.045 494.297 611.794 494.297Z" fill="#A696F0"/>
<path d="M582.497 499.021H581.552C581.301 499.021 581.061 498.921 580.884 498.744C580.707 498.567 580.607 498.327 580.607 498.076C580.607 497.825 580.707 497.585 580.884 497.408C581.061 497.23 581.301 497.131 581.552 497.131H582.497C582.748 497.131 582.988 497.23 583.165 497.408C583.343 497.585 583.442 497.825 583.442 498.076C583.442 498.327 583.343 498.567 583.165 498.744C582.988 498.921 582.748 499.021 582.497 499.021Z" fill="white"/>
<path d="M625.025 489.573H620.3C620.049 489.573 619.809 489.473 619.632 489.296C619.454 489.119 619.355 488.878 619.355 488.628C619.355 488.377 619.454 488.137 619.632 487.959C619.809 487.782 620.049 487.683 620.3 487.683H625.025C625.276 487.683 625.516 487.782 625.694 487.959C625.871 488.137 625.97 488.377 625.97 488.628C625.97 488.878 625.871 489.119 625.694 489.296C625.516 489.473 625.276 489.573 625.025 489.573Z" fill="#A696F0"/>
<path d="M604.233 499.021H590.057C589.806 499.021 589.566 498.921 589.388 498.744C589.211 498.567 589.112 498.327 589.112 498.076C589.112 497.825 589.211 497.585 589.388 497.408C589.566 497.23 589.806 497.131 590.057 497.131H604.233C604.484 497.131 604.724 497.23 604.901 497.408C605.078 497.585 605.178 497.825 605.178 498.076C605.178 498.327 605.078 498.567 604.901 498.744C604.724 498.921 604.484 499.021 604.233 499.021Z" fill="#F9DC4E"/>
<path d="M616.521 499.021H608.015C607.764 499.021 607.524 498.921 607.347 498.744C607.169 498.567 607.07 498.327 607.07 498.076C607.07 497.825 607.169 497.585 607.347 497.408C607.524 497.23 607.764 497.131 608.015 497.131H616.521C616.771 497.131 617.012 497.23 617.189 497.408C617.366 497.585 617.466 497.825 617.466 498.076C617.466 498.327 617.366 498.567 617.189 498.744C617.012 498.921 616.771 499.021 616.521 499.021Z" fill="#4ED8D5"/>
<path d="M625.025 499.021H620.3C620.049 499.021 619.809 498.921 619.632 498.744C619.454 498.567 619.355 498.327 619.355 498.076C619.355 497.825 619.454 497.585 619.632 497.408C619.809 497.23 620.049 497.131 620.3 497.131H625.025C625.276 497.131 625.516 497.23 625.694 497.408C625.871 497.585 625.97 497.825 625.97 498.076C625.97 498.327 625.871 498.567 625.694 498.744C625.516 498.921 625.276 499.021 625.025 499.021Z" fill="#A696F0"/>
<defs>
<filter id="filter0_d_0_1" x="0" y="194.296" width="106.222" height="81.7036" filterUnits="userSpaceOnUse" color-interpolation-filters="sRGB">
<feFlood flood-opacity="0" result="BackgroundImageFix"/>
<feColorMatrix in="SourceAlpha" type="matrix" values="0 0 0 0 0 0 0 0 0 0 0 0 0 0 0 0 0 0 127 0" result="hardAlpha"/>
<feOffset dx="6" dy="8"/>
<feGaussianBlur stdDeviation="7"/>
<feComposite in2="hardAlpha" operator="out"/>
<feColorMatrix type="matrix" values="0 0 0 0 0.796078 0 0 0 0 0.698039 0 0 0 0 0.392157 0 0 0 0.14 0"/>
<feBlend mode="normal" in2="BackgroundImageFix" result="effect1_dropShadow_0_1"/>
<feBlend mode="normal" in="SourceGraphic" in2="effect1_dropShadow_0_1" result="shape"/>
</filter>
<filter id="filter1_d_0_1" x="421" y="2.2959" width="106.222" height="81.7036" filterUnits="userSpaceOnUse" color-interpolation-filters="sRGB">
<feFlood flood-opacity="0" result="BackgroundImageFix"/>
<feColorMatrix in="SourceAlpha" type="matrix" values="0 0 0 0 0 0 0 0 0 0 0 0 0 0 0 0 0 0 127 0" result="hardAlpha"/>
<feOffset dx="6" dy="8"/>
<feGaussianBlur stdDeviation="7"/>
<feComposite in2="hardAlpha" operator="out"/>
<feColorMatrix type="matrix" values="0 0 0 0 0.796078 0 0 0 0 0.698039 0 0 0 0 0.392157 0 0 0 0.14 0"/>
<feBlend mode="normal" in2="BackgroundImageFix" result="effect1_dropShadow_0_1"/>
<feBlend mode="normal" in="SourceGraphic" in2="effect1_dropShadow_0_1" result="shape"/>
</filter>
<filter id="filter2_d_0_1" x="535" y="470.593" width="138.399" height="90.4067" filterUnits="userSpaceOnUse" color-interpolation-filters="sRGB">
<feFlood flood-opacity="0" result="BackgroundImageFix"/>
<feColorMatrix in="SourceAlpha" type="matrix" values="0 0 0 0 0 0 0 0 0 0 0 0 0 0 0 0 0 0 127 0" result="hardAlpha"/>
<feOffset dx="6" dy="8"/>
<feGaussianBlur stdDeviation="7"/>
<feComposite in2="hardAlpha" operator="out"/>
<feColorMatrix type="matrix" values="0 0 0 0 0.796078 0 0 0 0 0.698039 0 0 0 0 0.392157 0 0 0 0.14 0"/>
<feBlend mode="normal" in2="BackgroundImageFix" result="effect1_dropShadow_0_1"/>
<feBlend mode="normal" in="SourceGraphic" in2="effect1_dropShadow_0_1" result="shape"/>
</filter>
<linearGradient id="paint0_linear_0_1" x1="452.91" y1="8.50278" x2="484.525" y2="40.1176" gradientUnits="userSpaceOnUse">
<stop stop-color="#9B8DFF"/>
<stop offset="0.252" stop-color="#7D79FD"/>
<stop offset="0.555" stop-color="#5F65FB"/>
<stop offset="0.815" stop-color="#4D58F9"/>
<stop offset="1" stop-color="#4654F9"/>
</linearGradient>
<clipPath id="clip0_0_1">
<rect width="47.4074" height="47.4074" fill="white" transform="translate(23.4086 192)"/>
</clipPath>
</defs>
</svg>
