<svg width="64" height="54" viewBox="0 0 64 54" fill="none" xmlns="http://www.w3.org/2000/svg">
<g clip-path="url(#clip0_91_2155)">
<path d="M58.4773 21.7305C57.9867 20.541 57.3364 19.4344 56.5511 18.4388C54.0191 15.2291 50.0941 13.1696 45.6889 13.1696H37.1271C37.1254 10.4829 35.1155 8.26963 32.5185 7.9449V3.83621C33.2851 3.56446 33.8354 2.83553 33.8354 1.97585C33.8354 0.883729 32.9518 0.000976562 31.8605 0.000976562C30.7693 0.000976562 29.8856 0.884584 29.8856 1.97585C29.8856 2.83638 30.436 3.56446 31.2025 3.83621V7.94404C28.6047 8.26877 26.5956 10.4821 26.5939 13.1688H18.0322C13.6269 13.1688 9.70198 15.2291 7.16994 18.4379C6.38375 19.4344 5.73429 20.541 5.24378 21.7297C2.34684 21.7442 0.00195312 24.0976 0.00195312 26.9971C0.00195312 29.542 1.80506 31.6639 4.20293 32.1586V51.9706C4.20293 53.0473 5.04381 53.9694 6.12055 53.9993C6.82384 54.0181 7.44169 53.672 7.80914 53.1388L7.87067 53.0413L13.4167 44.4309C14.8635 42.1834 17.3502 40.8289 20.0198 40.8289H45.6897C50.095 40.8289 54.0199 38.7686 56.552 35.5598C57.3381 34.5633 57.9876 33.4567 58.4781 32.268C61.375 32.2535 63.7199 29.9001 63.7199 26.9988C63.7199 24.0976 61.375 21.7459 58.4781 21.7314L58.4773 21.7305ZM31.8597 11.1939C32.9492 11.1939 33.8328 12.0775 33.8345 13.1688H29.8839C29.8856 12.0767 30.7693 11.1939 31.8588 11.1939H31.8597ZM45.5616 35.5598H17.1468C14.4747 35.5598 11.9879 36.9168 10.5411 39.1617L9.46868 40.8289V26.998C9.46868 22.2698 13.3022 18.4388 18.0304 18.4388H45.6889C50.4547 18.4388 54.3122 22.3364 54.2481 27.1151C54.1866 31.8194 50.2659 35.5598 45.5607 35.5598H45.5616Z" fill="#008AAB"/>
<path d="M42.3953 21.7312H21.322C18.4123 21.7312 16.0537 24.0898 16.0537 26.9995C16.0537 29.9093 18.4123 32.2678 21.322 32.2678H42.3953C45.305 32.2678 47.6636 29.9101 47.6636 26.9995C47.6636 24.0889 45.305 21.7312 42.3953 21.7312ZM23.9558 28.9752C22.8645 28.9752 21.98 28.0908 21.98 26.9995C21.98 25.9083 22.8645 25.0238 23.9558 25.0238C25.047 25.0238 25.9315 25.9083 25.9315 26.9995C25.9315 28.0908 25.047 28.9752 23.9558 28.9752ZM39.7607 28.9752C38.6694 28.9752 37.785 28.0908 37.785 26.9995C37.785 25.9083 38.6694 25.0238 39.7607 25.0238C40.852 25.0238 41.7364 25.9083 41.7364 26.9995C41.7364 28.0908 40.852 28.9752 39.7607 28.9752Z" fill="#CBB264"/>
<path d="M20.4718 50.4845C20.4718 51.0041 20.347 51.4023 20.1009 51.6681C19.8591 51.9296 19.5147 52.0561 19.0464 52.0561C18.5781 52.0561 18.2414 51.9296 18.0013 51.669C17.7569 51.4032 17.6329 51.005 17.6329 50.4845V44.6163H15.6709V50.4435C15.6709 51.1682 15.8025 51.8023 16.0623 52.3287C16.3315 52.873 16.7288 53.2935 17.2433 53.5789C17.7466 53.8583 18.3525 53.9993 19.0455 53.9993C19.7386 53.9993 20.3504 53.8583 20.8555 53.5789C21.3725 53.2935 21.7715 52.8722 22.0407 52.3278C22.3005 51.8014 22.4321 51.1673 22.4321 50.4427V44.6155H20.4701V50.4837L20.4718 50.4845Z" fill="#008AAB"/>
<path d="M28.7908 49.952C29.2275 49.7145 29.5718 49.3726 29.8137 48.936C30.0521 48.507 30.1726 48.0088 30.1726 47.4567C30.1726 46.9047 30.0529 46.4073 29.8171 45.9784C29.577 45.5417 29.2334 45.199 28.7968 44.9615C28.3678 44.7282 27.8696 44.6094 27.3141 44.6094H23.5464V53.9112H25.5076V50.3024H26.6723L28.4934 53.9112H30.7819L28.7156 49.9905C28.7412 49.9777 28.766 49.9649 28.7908 49.9512V49.952ZM28.0277 47.9883C27.9636 48.1241 27.8764 48.2241 27.7636 48.2942C27.6482 48.366 27.5166 48.401 27.3611 48.401H25.5076V46.5133H27.3611C27.5201 46.5133 27.6517 46.5475 27.7645 46.6184C27.8773 46.6894 27.9636 46.7902 28.0277 46.9261C28.0986 47.0748 28.1345 47.2534 28.1345 47.4567C28.1345 47.6601 28.0986 47.8387 28.0277 47.9874V47.9883Z" fill="#008AAB"/>
<path d="M36.5956 44.9905C36.1521 44.7418 35.6376 44.6162 35.0651 44.6162H31.3794V53.912H33.3406V50.6024H35.0651C35.6376 50.6024 36.1521 50.4776 36.5947 50.2315C37.0451 49.9811 37.3989 49.623 37.6458 49.1676C37.8885 48.7198 38.0116 48.1976 38.0116 47.6157C38.0116 47.0337 37.8885 46.5108 37.6458 46.0613C37.3989 45.6032 37.0451 45.2435 36.5956 44.9914V44.9905ZM35.8974 48.2182C35.8214 48.3762 35.7197 48.4925 35.5855 48.5754C35.4505 48.6591 35.2941 48.7001 35.1061 48.7001H33.3406V46.5193H35.1061C35.2924 46.5193 35.4488 46.5603 35.5829 46.6449C35.718 46.7304 35.8205 46.8483 35.8974 47.0073C35.9794 47.1773 36.0205 47.3815 36.0205 47.6157C36.0205 47.8498 35.9786 48.0481 35.8974 48.2182Z" fill="#008AAB"/>
<path d="M43.7104 44.9693C43.2003 44.677 42.6072 44.5283 41.9475 44.5283C41.2878 44.5283 40.6956 44.677 40.1854 44.9693C39.6693 45.2649 39.2651 45.6879 38.9831 46.2263C38.707 46.7544 38.5669 47.3697 38.5669 48.0551V50.4726C38.5669 51.1579 38.707 51.7732 38.9831 52.3013C39.2651 52.8397 39.6693 53.2636 40.1854 53.5592C40.6956 53.8515 41.2886 54.0002 41.9484 54.0002C42.6081 54.0002 43.2011 53.8515 43.7113 53.5592C44.2274 53.2636 44.6317 52.8397 44.9128 52.3013C45.1888 51.7732 45.329 51.1579 45.329 50.4726V48.0551C45.329 47.3697 45.1888 46.7544 44.9128 46.2263C44.6317 45.6879 44.2266 45.2649 43.7104 44.9684V44.9693ZM43.3379 50.5145C43.3379 50.8358 43.2772 51.1186 43.1584 51.3545C43.0439 51.5809 42.8892 51.751 42.6833 51.8723C42.4739 51.9963 42.2329 52.0569 41.9475 52.0569C41.6621 52.0569 41.422 51.9971 41.2117 51.8723C41.0066 51.751 40.8511 51.5818 40.7366 51.3553C40.6178 51.1186 40.5571 50.8358 40.5571 50.5145V48.0149C40.5571 47.6936 40.6178 47.4107 40.7366 47.1749C40.8511 46.9484 41.0058 46.7784 41.2117 46.657C41.422 46.5331 41.6621 46.4724 41.9475 46.4724C42.2329 46.4724 42.4731 46.5331 42.6833 46.657C42.8892 46.7784 43.0447 46.9484 43.1584 47.1749C43.2772 47.4116 43.3379 47.6936 43.3379 48.0149V50.5145Z" fill="#008AAB"/>
<path d="M51.2758 48.7591C50.9083 48.6053 50.4494 48.472 49.9085 48.3609C49.8854 48.3566 49.8615 48.3515 49.8316 48.3472C49.8154 48.3446 49.8 48.3412 49.7855 48.3386C49.7607 48.3327 49.7367 48.3284 49.7085 48.3241L49.6897 48.3198C49.2659 48.2378 48.9326 48.1575 48.6985 48.0814C48.5079 48.0199 48.3549 47.9293 48.231 47.8037C48.1379 47.7088 48.0917 47.5704 48.0917 47.3739C48.0917 47.0713 48.1951 46.8551 48.4173 46.6953C48.672 46.5116 49.054 46.4185 49.5522 46.4185C49.8299 46.4185 50.1119 46.4706 50.3905 46.574C50.6776 46.68 50.9733 46.844 51.2681 47.0602L51.58 47.2893L52.708 45.7143L52.3978 45.4913C52.1013 45.2785 51.7945 45.099 51.4852 44.958C51.175 44.817 50.8562 44.7085 50.5366 44.6367C50.2144 44.5641 49.8829 44.5273 49.5522 44.5273C48.8651 44.5273 48.2635 44.6367 47.7636 44.8521C47.2397 45.0777 46.8338 45.4144 46.5561 45.8519C46.2809 46.286 46.1416 46.8099 46.1416 47.4149C46.1416 48.1019 46.2972 48.6497 46.604 49.0436C46.903 49.4282 47.2714 49.6974 47.6995 49.8452C48.0755 49.9743 48.5643 50.0913 49.142 50.1905L49.2155 50.205C49.2454 50.2127 49.2761 50.2178 49.3069 50.2195H49.3129C49.6786 50.287 49.9794 50.3605 50.2042 50.4374C50.3871 50.5007 50.5298 50.5921 50.6409 50.7169C50.7314 50.8194 50.7759 50.9672 50.7759 51.1758C50.7759 51.4689 50.6708 51.6705 50.4349 51.8295C50.1606 52.0141 49.7487 52.1072 49.2103 52.1072C48.7993 52.1072 48.4147 52.044 48.0669 51.9184C47.7217 51.7945 47.4013 51.6047 47.1141 51.3552L46.8159 51.0971L45.5845 52.6097L45.8716 52.8515C46.1724 53.1053 46.4997 53.3207 46.8449 53.4899C47.1902 53.6599 47.5662 53.7881 47.9635 53.8727L48.554 53.9983H49.2103C49.9188 53.9983 50.5375 53.8907 51.0493 53.6787C51.586 53.4566 52.0039 53.125 52.2919 52.6926C52.5798 52.261 52.726 51.7406 52.726 51.1339C52.726 50.4947 52.5841 49.9743 52.3047 49.5871C52.0312 49.2077 51.6843 48.9283 51.2741 48.7574L51.2758 48.7591Z" fill="#008AAB"/>
<path d="M53.5474 53.9129H59.7924V52.0098H55.5094V50.2451H59.1472V48.3421H55.5094V46.5193H59.7924V44.6162H53.5474V53.9129Z" fill="#008AAB"/>
</g>
<defs>
<clipPath id="clip0_91_2155">
<rect width="63.7188" height="54" fill="white"/>
</clipPath>
</defs>
</svg>
