<svg width="136" height="104" viewBox="0 0 136 104" fill="none" xmlns="http://www.w3.org/2000/svg">
<path fill-rule="evenodd" clip-rule="evenodd" d="M21.8069 7.07452V20.8065H9.88579L9.97004 7.02498L21.8069 7.07452ZM21.8069 35.0644V21.8065H9.87968L9.79863 35.0644H21.8069ZM21.8069 36.0644V48.4839H9.7166L9.79252 36.0644H21.8069ZM21.8069 62.7419V49.4839H9.71048L9.62943 62.7419H21.8069ZM21.8069 63.7419V77H9.54227L9.62332 63.7419H21.8069ZM21.8069 90.4193V78H9.53616L9.46024 90.4193H21.8069ZM21.8069 91.4193V104H22.8069V91.4193H36.066V104H37.066V91.4193H50.3233V104H51.3233V91.4193H64.5806V104H65.5806V91.4193H77.9998V104H78.9998V91.4193H92.2589V104H93.2589V91.4193H106.516V104H107.516V91.4193H119.935V104H120.935V91.4193H135.032V90.4193H120.935V78H135.032V77H120.935V63.7419H135.032V62.7419H120.935V49.4839H135.032V48.4839H120.935V36.0644H135.032V35.0644H120.935V21.8065H135.032V20.8065H120.935V7.48935L135.033 7.54834L135.037 6.54835L120.935 6.48934V0H119.935V6.48515L107.516 6.43318V0H106.516V6.429L93.2589 6.37352V0H92.2589V6.36933L78.9998 6.31385V0H77.9998V6.30966L65.5806 6.25769V0H64.5806V6.25351L51.3233 6.19803V0H50.3233V6.19384L37.066 6.13836V0H36.066V6.13418L22.8069 6.07869V0H21.8069V6.07451L9.97615 6.025L10.0007 2.00611L9.00074 2L8.97616 6.02081L4.00418 6.00001L4 7L8.97005 7.0208L8.88577 20.8065H0V21.8065H8.87966L8.79861 35.0644H0V36.0644H8.7925L8.71658 48.4839H0V49.4839H8.71046L8.62942 62.7419H0V63.7419H8.6233L8.54225 77H0V78H8.53614L8.46022 90.4193H0.838052V91.4193H8.45411L8.38745 102.323L9.38743 102.329L9.45413 91.4193H21.8069ZM119.935 90.4193V78H107.516V90.4193H119.935ZM106.516 90.4193V78H93.2589V90.4193H106.516ZM92.2589 90.4193V78H78.9998V90.4193H92.2589ZM77.9998 90.4193V78H65.5806V90.4193H77.9998ZM64.5806 90.4193V78H51.3233V90.4193H64.5806ZM50.3233 90.4193V78H37.066V90.4193H50.3233ZM36.066 90.4193V78H22.8069V90.4193H36.066ZM119.935 63.7419V77H107.516V63.7419H119.935ZM106.516 63.7419V77H93.2589V63.7419H106.516ZM92.2589 63.7419V77H78.9998V63.7419H92.2589ZM77.9998 63.7419V77H65.5806V63.7419H77.9998ZM64.5806 63.7419V77H51.3233V63.7419H64.5806ZM50.3233 63.7419V77H37.066V63.7419H50.3233ZM36.066 63.7419V77H22.8069V63.7419H36.066ZM119.935 62.7419V49.4839H107.516V62.7419H119.935ZM106.516 62.7419V49.4839H93.2589V62.7419H106.516ZM92.2589 62.7419V49.4839H78.9998V62.7419H92.2589ZM77.9998 62.7419V49.4839H65.5806V62.7419H77.9998ZM64.5806 62.7419V49.4839H51.3233V62.7419H64.5806ZM50.3233 62.7419V49.4839H37.066V62.7419H50.3233ZM36.066 62.7419V49.4839H22.8069V62.7419H36.066ZM119.935 36.0644V48.4839H107.516V36.0644H119.935ZM106.516 36.0644V48.4839H93.2589V36.0644H106.516ZM92.2589 36.0644V48.4839H78.9998V36.0644H92.2589ZM77.9998 36.0644V48.4839H65.5806V36.0644H77.9998ZM64.5806 36.0644V48.4839H51.3233V36.0644H64.5806ZM50.3233 36.0644V48.4839H37.066V36.0644H50.3233ZM36.066 36.0644V48.4839H22.8069V36.0644H36.066ZM119.935 35.0644V21.8065H107.516V35.0644H119.935ZM106.516 35.0644V21.8065H93.2589V35.0644H106.516ZM92.2589 35.0644V21.8065H78.9998V35.0644H92.2589ZM77.9998 35.0644V21.8065H65.5806V35.0644H77.9998ZM64.5806 35.0644V21.8065H51.3233V35.0644H64.5806ZM50.3233 35.0644V21.8065H37.066V35.0644H50.3233ZM36.066 35.0644V21.8065H22.8069V35.0644H36.066ZM119.935 7.48516V20.8065H107.516V7.43319L119.935 7.48516ZM106.516 7.42901V20.8065H93.2589V7.37353L106.516 7.42901ZM92.2589 7.36934V20.8065H78.9998V7.31386L92.2589 7.36934ZM77.9998 7.30967V20.8065H65.5806V7.2577L77.9998 7.30967ZM64.5806 7.25352V20.8065H51.3233V7.19804L64.5806 7.25352ZM50.3233 7.19385V20.8065H37.066V7.13837L50.3233 7.19385ZM36.066 7.13419V20.8065H22.8069V7.0787L36.066 7.13419Z" fill="url(#paint0_linear_91_766)"/>
<defs>
<linearGradient id="paint0_linear_91_766" x1="17.1936" y1="14.8571" x2="102.199" y2="101.233" gradientUnits="userSpaceOnUse">
<stop stop-color="#E11A0B"/>
<stop offset="1" stop-color="white" stop-opacity="0"/>
</linearGradient>
</defs>
</svg>
