<svg width="30" height="24" viewBox="0 0 30 24" fill="none" xmlns="http://www.w3.org/2000/svg">
<path d="M3.44648 23.1273H26.5536C29.3352 23.1273 30.9669 19.9978 29.3743 17.7169L18.1497 1.64224C16.6208 -0.547414 13.3793 -0.547414 11.8501 1.64224L0.625528 17.7169C-0.966823 19.9978 0.664903 23.1273 3.44648 23.1273Z" fill="#FF929F"/>
<path d="M12.1276 13.3485C15.8858 9.37829 16.5438 3.52433 16.5979 0.34473C14.9897 -0.386816 12.9651 0.0460183 11.8501 1.64247L0.625528 17.7171C-0.966823 19.998 0.664903 23.1275 3.44648 23.1275H8.36105C8.31459 20.591 8.90469 16.7529 12.1276 13.3485Z" fill="#FF737D"/>
<path d="M14.9958 15.1778C13.9459 15.1778 13.0869 14.3188 13.0869 13.2689V5.60931C13.0869 4.55918 13.9459 3.7002 14.9958 3.7002C16.0457 3.7002 16.9047 4.55918 16.9047 5.60931V13.2689C16.9047 14.3188 16.0457 15.1778 14.9958 15.1778ZM16.8806 18.8104C16.8806 19.8513 16.0368 20.695 14.9958 20.695C13.9548 20.695 13.1109 19.8513 13.1109 18.8104C13.1109 17.7694 13.9548 16.9255 14.9958 16.9255C16.0368 16.9255 16.8806 17.7694 16.8806 18.8104Z" fill="white"/>
<path d="M16.2567 4.17903C15.9198 3.88125 15.478 3.7002 14.9958 3.7002C13.9459 3.7002 13.0869 4.55942 13.0869 5.60931V12.2041C14.9452 9.72489 15.8399 6.75365 16.2567 4.17903Z" fill="#CCF8FF"/>
</svg>
